<?xml version="1.0" encoding="utf-8"?>
<!-- Generator: Adobe Illustrator 27.5.0, SVG Export Plug-In . SVG Version: 6.00 Build 0)  -->
<svg version="1.1" id="Capa_1" xmlns="http://www.w3.org/2000/svg" xmlns:xlink="http://www.w3.org/1999/xlink" x="0px" y="0px"
	 viewBox="0 0 1993 2259" style="enable-background:new 0 0 1993 2259;" xml:space="preserve">
<path style="fill:#912214;" d="M1031.537,525.096c-0.103,0.45-0.21,0.907-0.311,1.355c-0.198,0.875-0.392,1.745-0.584,2.612
	c-0.956,4.33-1.852,8.581-2.669,12.709c-0.448,2.265-0.875,4.498-1.28,6.693c-0.625,3.389-1.166,6.671-1.634,9.852
	c-0.935,6.36-1.578,12.313-2.022,17.896c-0.887,11.166-0.977,20.852-1.013,29.361c-0.046,10.89-0.022,19.837-1.449,27.508
	c28.566,3.301,56.134,9.332,82.017,18.488c32.634-27.996,70.542-47.266,111.922-58.026
	C1164.818,558.38,1100.781,533.996,1031.537,525.096z"/>
<path style="fill:#912214;" d="M738.866,586.023c49.521,6.274,95.221,23.588,134.459,52.217c12.64-2.316,25.774-4.225,39.562-5.579
	c6.624-0.651,13.235-1.149,19.835-1.566c0.81-36.089,3.472-72.386,8.224-108.596c-0.766,0.055-1.53,0.074-2.296,0.133
	C849.109,529.531,784.198,552.851,738.866,586.023z"/>
<path style="fill:#BD1D1D;" d="M680.715,1772.309c21.537-229.722-60.971-445.573-86.663-674.362
	c-42.324,158.143,42.089,317.192,42.089,481.208c-6.11,85.555-67.542,176.073-155.3,201.385c0,0,0,0-0.001,0
	c0,0.026,0,0.052,0,0.078c-0.127,4.091-0.177,8.173-0.173,12.255c0.001,0.672,0.003,1.346,0.008,2.018
	c0.028,4.048,0.118,8.098,0.301,12.161c0.006,0.142,0.008,0.284,0.015,0.425c0.198,4.248,0.5,8.513,0.892,12.8
	c0.062,0.677,0.146,1.361,0.213,2.039c0.346,3.494,0.771,7.008,1.263,10.543c0.142,1.019,0.284,2.039,0.439,3.062
	c0.596,3.934,1.273,7.895,2.071,11.9c0.058,0.292,0.101,0.579,0.16,0.871c0.865,4.261,1.879,8.58,2.995,12.941
	c0.287,1.121,0.611,2.26,0.914,3.388c0.901,3.344,1.884,6.724,2.945,10.139c0.397,1.277,0.785,2.551,1.205,3.839
	c1.466,4.493,3.026,9.03,4.789,13.667c3.585,9.43,8.275,19.262,14.046,29.176c2.886,4.957,6.041,9.935,9.466,14.893
	c3.424,4.958,7.116,9.897,11.073,14.777c11.871,14.639,26.129,28.744,42.701,41.237c14.785,11.147,31.455,20.961,49.873,28.775
	C671.099,1953.576,669.071,1853.821,680.715,1772.309z"/>
<path style="fill:#BD1D1D;" d="M1416.183,1660.875c-37.145-178.295,29.716-349.162-29.716-520.028
	c-7.74-27.643-18.824-53.274-32.608-77.039c-32.929,317.475-83.474,642.431,48.383,938.965c5.729-3.932,11.586-7.578,20.829-15.047
	c0.941-0.76,1.883-1.518,2.807-2.289c19.506-16.247,35.389-34.656,47.558-53.18c1.268-1.929,2.495-3.855,3.681-5.785
	c7.056-11.475,12.72-22.908,16.862-33.804c1.298-3.415,2.486-6.776,3.621-10.111c0.342-1.005,0.665-2.002,0.992-3
	c0.792-2.411,1.544-4.806,2.254-7.18c0.304-1.015,0.618-2.036,0.908-3.045c0.9-3.134,1.751-6.246,2.517-9.323
	c0.168-0.676,0.307-1.34,0.469-2.013c0.589-2.446,1.142-4.878,1.652-7.292c0.262-1.241,0.506-2.474,0.747-3.707
	c0.371-1.894,0.717-3.78,1.042-5.657c0.215-1.243,0.44-2.491,0.636-3.728c0.437-2.76,0.836-5.509,1.18-8.24
	c0.002-0.011,0.004-0.022,0.005-0.032C1463.69,1791.913,1429.678,1737.349,1416.183,1660.875z"/>
<path style="fill:#94201D;" d="M742.658,1946.044c-5.517-16.77-9.458-32.713-12.181-48.151c-2.724-15.438-4.231-30.372-4.881-45.124
	c-0.162-3.688-0.271-7.364-0.332-11.034c-0.122-7.341-0.052-14.656,0.165-21.987c0.216-7.33,0.58-14.676,1.045-22.077
	c0.465-7.401,1.032-14.858,1.656-22.41c0.312-3.776,0.638-7.576,0.974-11.405c5.359-61.267,12.925-129.958-0.314-226.739
	c-15.91-116.303-44.206-213.404-67.781-305.062c-5.052-19.641-9.886-39.032-14.336-58.309c-2.966-12.851-5.762-25.651-8.336-38.44
	c-6.436-31.973-11.49-63.878-14.383-96.343c-4.629-51.943-3.726-105.317,5.902-162.689c0.175-1.04,0.389-2.069,0.572-3.106
	c-29.644,57.563-44.582,124.51-38.858,200.82c0.75,8.005,1.589,15.989,2.484,23.962c25.692,228.788,108.2,444.639,86.663,674.362
	c-11.644,81.512-9.617,181.267-54.679,249.216l0,0c0.004,0.002,0.007,0.003,0.01,0.004c8.017,3.401,16.377,6.408,25.066,8.972
	c0.01,0.003,0.02,0.007,0.03,0.01c0.179,0.053,0.354,0.11,0.534,0.163c0.003,0,0.006,0.002,0.01,0.002
	c2.492,0.729,5.024,1.403,7.571,2.056c0.006,0.002,0.012,0.004,0.019,0.005c0.82,0.21,1.643,0.417,2.469,0.619
	c0.006,0.001,0.013,0.003,0.019,0.004c2.4,0.587,4.819,1.148,7.268,1.666c0.003,0.001,0.006,0.002,0.01,0.002
	c0.942,0.199,1.899,0.374,2.848,0.562c0.007,0.002,0.015,0.003,0.023,0.004c7.448,1.48,15.12,2.619,23.001,3.41
	c0.001,0.001,0.002,0,0.003,0c1.766,0.177,3.531,0.356,5.318,0.497c0.001,0,0.001,0,0.001,0c1.922,0.151,3.865,0.268,5.813,0.375
	c0,0,0.001,0,0.001,0c2.04,0.113,4.095,0.196,6.162,0.26c0,0,0.001,0,0.001,0c1.807,0.056,3.613,0.114,5.44,0.132
	c2.686,0.027,5.405-0.011,8.135-0.068c1.267-0.026,2.513-0.014,3.79-0.059c3.943-0.138,7.94-0.382,11.974-0.7
	c1.391-0.11,2.806-0.266,4.208-0.398c2.884-0.27,5.784-0.577,8.714-0.943c1.548-0.193,3.106-0.405,4.667-0.625
	c2.996-0.423,6.02-0.904,9.063-1.428c1.397-0.241,2.785-0.463,4.192-0.725c4.428-0.825,8.891-1.727,13.416-2.772
	c2.041-0.472,4.005-0.885,5.934-1.273c1.075-0.216,2.141-0.425,3.182-0.616c-17.777-18.913-33.129-41.009-43.672-63.265
	C747.872,1960.257,744.981,1953.105,742.658,1946.044z"/>
<path style="fill:#94201D;" d="M1353.86,1063.807c3.77-36.344,7.313-72.591,10.321-108.685
	c12.329-110.957-54.918-183.236-145.129-225.695c36.394,42.424,61.079,99.839,68.328,175.09
	c19.284,200.172-46.647,463.744-43.494,631.977c1.773,94.667,42.671,266.174,15.112,390.468c0.001,0,0.001-0.001,0.002-0.001
	c-0.003,0.01-0.005,0.019-0.007,0.028c-0.648,2.924-1.365,5.8-2.091,8.67c-0.333,1.319-0.667,2.636-1.016,3.943
	c-0.702,2.621-1.433,5.219-2.204,7.79c-0.48,1.603-0.995,3.18-1.501,4.763c-0.751,2.339-1.486,4.688-2.298,6.981
	c-1.267,3.584-2.609,7.11-4.031,10.577c-0.63,1.534-1.324,3.019-1.986,4.529c-1.047,2.396-2.118,4.773-3.246,7.106
	c-0.708,1.46-1.442,2.899-2.182,4.333c-1.263,2.453-2.583,4.861-3.943,7.237c-0.676,1.178-1.336,2.37-2.036,3.529
	c-2.106,3.49-4.29,6.917-6.624,10.223c-6.559,9.288-13.479,17.717-20.664,25.467c0.628,0.139,1.24,0.267,1.879,0.414
	c5.02,1.159,9.978,2.177,14.878,3.067c0,0,0.001,0,0.002,0c1.5,0.272,2.958,0.453,4.446,0.701c0.022,0.004,0.044,0.006,0.065,0.01
	c3.359,0.558,6.724,1.13,10.026,1.564c0,0,0,0.001,0.001,0.001c1.652,0.218,3.26,0.343,4.898,0.529
	c0.008,0.001,0.017,0.002,0.027,0.003c3.101,0.354,6.212,0.73,9.262,0.978c0,0,0,0,0,0c1.63,0.133,3.217,0.179,4.832,0.283
	c0.003,0,0.007,0,0.011,0c3.014,0.192,6.037,0.401,8.998,0.493c1.527,0.046,3.013,0.017,4.526,0.038c0.001,0,0.001,0,0.001,0
	c3.005,0.041,6.017,0.092,8.968,0.032c1.391-0.029,2.745-0.124,4.124-0.175c3.024-0.11,6.05-0.219,9.015-0.434
	c1.238-0.09,2.443-0.235,3.671-0.343c3.064-0.268,6.124-0.542,9.124-0.917c1.068-0.133,2.108-0.313,3.167-0.459
	c3.114-0.431,6.217-0.878,9.26-1.42c0.912-0.162,1.8-0.362,2.705-0.534c0.002-0.001,0.003-0.001,0.005-0.001
	c3.149-0.599,6.281-1.223,9.353-1.936c0.002,0,0.004-0.001,0.006-0.001c0.75-0.175,1.48-0.378,2.226-0.558
	c0.007-0.002,0.015-0.004,0.022-0.006c3.187-0.773,6.351-1.58,9.453-2.471c0.002,0,0.003,0,0.004,0
	c0.592-0.17,1.167-0.361,1.756-0.535c0.002-0.001,0.005-0.002,0.007-0.002c3.231-0.956,6.431-1.953,9.57-3.031
	c0.442-0.152,0.872-0.318,1.313-0.472c3.259-1.141,6.48-2.331,9.637-3.595c0.311-0.125,0.613-0.258,0.923-0.384
	c3.265-1.324,6.485-2.703,9.641-4.152c0.196-0.09,0.387-0.185,0.582-0.275c3.251-1.503,6.449-3.065,9.582-4.691
	c0,0,0.001,0,0.001-0.001c0.106-0.055,0.208-0.112,0.313-0.167c0.001-0.001,0.002-0.001,0.003-0.002
	c3.209-1.672,6.36-3.404,9.445-5.195c0.037-0.022,0.073-0.044,0.11-0.066c3.142-1.827,6.221-3.713,9.233-5.655
	C1270.386,1706.239,1320.931,1381.282,1353.86,1063.807z"/>
<path style="fill:#2B8C36;" d="M1192.044,188.503c-44.579-38.729-71.187-54.563-118.585-6.34
	c-47.074,47.893-77.644,121.183-97.889,184.189c-16.463,51.235-27.729,103.596-34.625,156.149
	c-4.431,33.772-6.975,67.613-7.965,101.298c23.739-14.017,46.662-32.335,52.323-54.982
	c25.71-159.536,76.643-223.899,188.077-313.046c14.862-10.616,27.497-39.317,30.05-56.519
	C1199.414,195.127,1195.459,191.469,1192.044,188.503z"/>
<path style="fill:#007535;" d="M1228.519,244.278c-0.026-0.431-0.027-0.861-0.067-1.291c-0.145-1.525-0.367-3.048-0.692-4.565
	c-0.053-0.248-0.134-0.495-0.192-0.743c-0.296-1.276-0.645-2.547-1.053-3.813c-0.169-0.524-0.362-1.045-0.549-1.567
	c-0.358-0.998-0.741-1.991-1.161-2.979c-0.236-0.557-0.473-1.113-0.727-1.667c-0.458-0.996-0.952-1.984-1.464-2.967
	c-0.255-0.489-0.49-0.982-0.757-1.468c-0.748-1.359-1.54-2.705-2.374-4.033c-0.389-0.62-0.807-1.225-1.212-1.836
	c-0.499-0.753-0.997-1.504-1.517-2.244c-0.507-0.721-1.027-1.432-1.552-2.14c-0.431-0.581-0.866-1.156-1.307-1.727
	c-0.592-0.766-1.186-1.531-1.793-2.279c-0.315-0.388-0.636-0.765-0.955-1.149c-2.504-3.011-5.099-5.873-7.676-8.52
	c-0.013-0.013-0.026-0.028-0.039-0.041c0,0,0,0,0,0.001c-2.553,17.202-15.188,45.903-30.05,56.519
	c-111.434,89.147-162.368,153.51-188.077,313.046c-5.664,22.657-28.606,40.982-52.357,55.002c-0.071,2.426-0.116,4.85-0.176,7.276
	c29.825-1.882,59.304-1.304,87.807,1.989c1.427-7.671,1.402-16.618,1.449-27.508c0.036-8.509,0.126-18.196,1.013-29.361
	c0.444-5.583,1.086-11.535,2.022-17.896c0.467-3.181,1.008-6.463,1.633-9.852c0.405-2.196,0.832-4.428,1.28-6.693
	c0.816-4.127,1.712-8.379,2.669-12.709c0.192-0.867,0.386-1.737,0.584-2.612c0.98-4.347,2.019-8.77,3.135-13.274
	c0.616-2.484,1.252-4.988,1.909-7.511c17.075-65.596,47.951-143.416,89.448-179.725c39.12-34.23,83.321-41.862,97.627-62.201
	c0.685-0.974,1.264-1.998,1.808-3.035c0.399-0.76,0.867-1.489,1.186-2.287c0.605-1.513,1.048-3.037,1.407-4.564
	c0.112-0.474,0.182-0.949,0.27-1.424c0.202-1.079,0.358-2.159,0.449-3.242c0.044-0.521,0.08-1.04,0.099-1.561
	C1228.606,246.51,1228.586,245.395,1228.519,244.278z"/>
<path style="fill:#D12518;" d="M1508.341,1511.161c38.195-262.638,200.453-458.024,154.897-683.674
	c-32.394-160.454-167.893-241.124-360.173-244.17c-30.745-0.486-60.442,2.919-88.549,10.228
	c-41.38,10.759-79.288,30.029-111.922,58.026c-25.883-9.156-53.451-15.187-82.017-18.488c-28.502-3.293-57.982-3.87-87.807-1.989
	c-0.016,0.001-0.032,0.002-0.049,0.003c-6.6,0.417-13.211,0.914-19.835,1.566c-13.787,1.354-26.922,3.263-39.562,5.579
	c-39.238-28.629-84.938-45.943-134.459-52.217c-15.999-2.027-32.371-2.971-49.072-2.706c-192.28,3.046-327.78,83.716-360.173,244.17
	c-45.556,225.65,116.703,421.037,154.897,683.674c18.397,126.505-1.488,199.341-3.677,269.38
	c87.758-25.312,149.19-115.83,155.3-201.385c0-164.016-84.413-323.065-42.089-481.208c-0.895-7.972-1.734-15.957-2.484-23.962
	c-5.724-76.31,9.214-143.256,38.858-200.82c0.081-0.567,0.158-1.126,0.55-3.235c14.641-78.613,55.228-149.644,133.254-193.678
	c-53.148,252.805-41.486,524.168,102.209,746.894c29.716,44.574,37.145,96.576,29.716,141.15
	c-7.429,141.151-74.289,341.733,89.148,408.593c96.874,39.631,196.353,14.001,273.695-45.928
	c27.559-124.294-13.339-295.802-15.112-390.468c-3.153-168.233,62.778-431.805,43.494-631.977
	c-7.249-75.251-31.934-132.666-68.328-175.09c90.211,42.459,157.458,114.738,145.129,225.695
	c-3.008,36.094-6.551,72.341-10.321,108.685c13.784,23.765,24.867,49.396,32.608,77.039
	c59.432,170.866-7.429,341.733,29.716,520.028c13.495,76.474,47.506,131.038,93.82,168.464
	C1521.091,1741.339,1485.688,1666.933,1508.341,1511.161z"/>
<path style="fill:#BD1D1D;" d="M1225.834,2006.67c2.334-3.306,4.518-6.733,6.624-10.223c0.699-1.16,1.361-2.35,2.036-3.529
	c1.36-2.376,2.68-4.784,3.943-7.237c0.739-1.435,1.475-2.873,2.182-4.333c1.128-2.333,2.199-4.711,3.246-7.106
	c0.661-1.511,1.357-2.994,1.986-4.529c1.422-3.466,2.764-6.993,4.031-10.577c0.81-2.294,1.549-4.641,2.298-6.981
	c0.507-1.583,1.022-3.159,1.501-4.763c0.769-2.571,1.503-5.169,2.204-7.79c0.349-1.306,0.683-2.624,1.016-3.943
	c0.725-2.87,1.443-5.746,2.091-8.67c0.002-0.01,0.004-0.019,0.007-0.028c0,0-0.001,0.001-0.002,0.001
	c-77.342,59.929-176.821,85.559-273.695,45.928c-163.437-66.861-96.577-267.443-89.148-408.593c7.429-44.574,0-96.577-29.716-141.15
	C722.745,1200.421,711.082,929.058,764.23,676.253c-80.118,45.215-120.763,118.894-134.376,200.019
	c-9.627,57.372-10.531,110.746-5.902,162.689c2.893,32.464,7.947,64.37,14.383,96.343c2.574,12.789,5.37,25.589,8.336,38.44
	c4.45,19.276,9.285,38.667,14.336,58.309c23.575,91.658,51.872,188.759,67.782,305.062c13.239,96.781,5.673,165.473,0.313,226.74
	c-0.335,3.829-0.661,7.629-0.974,11.405c-0.624,7.552-1.191,15.009-1.656,22.41c-0.465,7.401-0.829,14.747-1.045,22.077
	c-0.217,7.331-0.286,14.647-0.165,21.987c0.062,3.67,0.17,7.347,0.332,11.034c0.651,14.752,2.158,29.686,4.881,45.124
	c2.723,15.438,6.664,31.381,12.181,48.151c2.322,7.061,5.214,14.213,8.596,21.354c23.678,49.983,71.445,99.386,117.037,112.948
	c19.763,5.879,43.771,12.347,70.194,17.307c9.877,1.854,20.088,3.493,30.552,4.811c4.719,0.594,9.483,1.126,14.294,1.578
	c19.571,1.839,39.824,2.429,60.196,1.064c4.136-0.277,8.278-0.635,12.419-1.078c8.283-0.887,16.564-2.117,24.807-3.738
	c8.242-1.621,16.444-3.631,24.569-6.076c4.062-1.223,8.104-2.554,12.123-4.001c8.036-2.893,15.974-6.245,23.777-10.101
	c7.802-3.856,15.468-8.217,22.959-13.128c5.826-3.82,11.51-8.082,17.106-12.59c5.197-4.186,10.324-8.569,15.292-13.384
	c2.915-2.824,5.763-5.821,8.59-8.871h0.001C1212.355,2024.387,1219.275,2015.958,1225.834,2006.67z"/>
<path style="fill:#68982E;" d="M1106.972,169.638c-42.668,40.766-75.823,97.91-99.785,151.346
	c-21.915,48.871-44.4,110.799-38.027,165.131l0.324,0.088c25.473-50.136,37.979-106.657,62.81-157.653
	c25.758-52.899,59.774-96.691,93.272-144.564C1133.483,172.672,1116.398,160.631,1106.972,169.638z"/>
<path style="fill:#E63B11;" d="M1056.056,666.354c-191.48,32.526-55.208,264.062-20.862,329.464
	c37.486,71.382,26.015,155.982,13.688,232.436c-15.414,95.6-21.681,179.393-3.305,275.179
	c8.79,45.817,17.111,122.518,70.173,139.886c43.973,14.393,93.368-23.129,97.35-66.224c7.55-81.704,7.025-130.381-0.912-194.031
	c-9.78-78.432-2.212-155.029,19.531-229.489C1281.219,984.061,1289.245,689.877,1056.056,666.354z"/>
<path style="fill:#E63B11;" d="M1592.547,723.549c-61.749-92.558-245.401-138.067-295.819-123.052
	c-50.419,15.015-57.441,73.493-5.807,108.78c24.352,16.643,68.512,22.515,93.788,36.678
	c66.854,37.463,108.499,122.645,110.794,195.798c1.45,46.197-29.292,247.749,71.377,209.956
	c62.87-23.602,76.803-146.844,79.161-200.853C1648.97,883.737,1632.025,782.723,1592.547,723.549z"/>
<path style="fill:#E63B11;" d="M584.212,632.399c-36.477-11.737-135.045,18.059-200.54,114.512
	c-29.108,42.865-49.176,131.845-47.043,180.734c1.717,39.341,19.945,113.946,65.739,131.138
	c73.327,27.528,37.799-109.404,38.855-143.054c1.672-53.285,49.388-159.625,96.65-189.328
	C600.83,686.834,621.247,644.315,584.212,632.399z"/>
</svg>
