<svg width="23.101685" height="23.094727" viewBox="0 0 23.1017 23.0947" fill="none" xmlns="http://www.w3.org/2000/svg" xmlns:xlink="http://www.w3.org/1999/xlink">
	<desc>
			Created with Pixso.
	</desc>
	<defs/>
	<mask id="mask4_1431" mask-type="alpha" maskUnits="userSpaceOnUse" x="0.000000" y="0.000000" width="23.101685" height="23.094727">
		<path id="svgIDa" d="M0 0L23.1 0L23.1 23.09L0 23.09L0 0Z" fill="#000000" fill-opacity="1.000000" fill-rule="nonzero"/>
	</mask>
	<g mask="url(#mask4_1431)">
		<path id="Vector" d="M0 11.61C0 17.35 4.17 22.12 9.62 23.09L9.62 14.75L6.73 14.75L6.73 11.54L9.62 11.54L9.62 8.98C9.62 6.09 11.48 4.49 14.11 4.49C14.95 4.49 15.85 4.61 16.68 4.74L16.68 7.69L15.2 7.69C13.79 7.69 13.47 8.4 13.47 9.3L13.47 11.54L16.55 11.54L16.04 14.75L13.47 14.75L13.47 23.09C18.93 22.12 23.1 17.35 23.1 11.61C23.1 5.22 17.9 0 11.55 0C5.19 0 0 5.22 0 11.61Z" fill="#EFEBE3" fill-opacity="1.000000" fill-rule="evenodd"/>
	</g>
</svg>
