<svg width="22.195679" height="22.188965" viewBox="0 0 22.1957 22.189" fill="none" xmlns="http://www.w3.org/2000/svg" xmlns:xlink="http://www.w3.org/1999/xlink">
	<desc>
			Created with Pixso.
	</desc>
	<defs/>
	<path id="Vector" d="M6.52 0.06C7.7 0.01 8.08 0 11.09 0C14.11 0 14.48 0.01 15.67 0.06C16.85 0.12 17.66 0.3 18.36 0.58C19.1 0.86 19.77 1.29 20.33 1.86C20.89 2.41 21.33 3.08 21.61 3.82C21.88 4.53 22.07 5.33 22.12 6.51C22.18 7.7 22.19 8.08 22.19 11.09C22.19 14.1 22.18 14.48 22.12 15.66C22.07 16.84 21.88 17.65 21.61 18.36C21.33 19.1 20.89 19.77 20.33 20.32C19.77 20.89 19.1 21.32 18.36 21.6C17.66 21.88 16.85 22.06 15.67 22.12C14.48 22.17 14.11 22.18 11.09 22.18C8.08 22.18 7.7 22.17 6.52 22.12C5.34 22.06 4.53 21.88 3.82 21.6C3.08 21.32 2.41 20.89 1.86 20.32C1.29 19.77 0.86 19.1 0.58 18.36C0.3 17.65 0.12 16.84 0.06 15.66C0.01 14.48 0 14.1 0 11.09C0 8.08 0.01 7.7 0.06 6.52C0.12 5.33 0.3 4.53 0.58 3.82C0.86 3.08 1.29 2.41 1.86 1.86C2.41 1.29 3.08 0.86 3.82 0.58C4.53 0.3 5.34 0.12 6.52 0.06L6.52 0.06ZM15.58 2.06C14.41 2.01 14.06 1.99 11.09 1.99C8.13 1.99 7.78 2.01 6.61 2.06C5.53 2.11 4.94 2.29 4.55 2.44C4.03 2.64 3.66 2.88 3.27 3.27C2.9 3.63 2.62 4.06 2.44 4.55C2.29 4.94 2.11 5.52 2.06 6.61C2.01 7.78 1.99 8.13 1.99 11.09C1.99 14.05 2.01 14.4 2.06 15.57C2.11 16.65 2.29 17.24 2.44 17.63C2.62 18.11 2.9 18.55 3.27 18.91C3.63 19.28 4.07 19.56 4.55 19.74C4.94 19.89 5.53 20.07 6.61 20.12C7.78 20.17 8.13 20.18 11.09 20.18C14.06 20.18 14.41 20.17 15.58 20.12C16.66 20.07 17.25 19.89 17.64 19.74C18.16 19.54 18.53 19.3 18.91 18.91C19.28 18.55 19.57 18.11 19.74 17.63C19.9 17.24 20.08 16.65 20.13 15.57C20.18 14.4 20.19 14.05 20.19 11.09C20.19 8.13 20.18 7.78 20.13 6.61C20.08 5.52 19.9 4.94 19.74 4.55C19.54 4.03 19.3 3.66 18.91 3.27C18.56 2.9 18.12 2.62 17.64 2.44C17.25 2.29 16.66 2.11 15.58 2.06ZM9.68 14.51C10.47 14.84 11.35 14.88 12.17 14.64C12.99 14.39 13.7 13.86 14.18 13.15C14.65 12.44 14.87 11.58 14.78 10.73C14.7 9.87 14.32 9.08 13.71 8.47C13.32 8.09 12.86 7.79 12.34 7.6C11.82 7.42 11.27 7.35 10.73 7.41C10.19 7.46 9.66 7.63 9.19 7.92C8.72 8.2 8.32 8.58 8.02 9.03C7.71 9.49 7.51 10.01 7.43 10.55C7.35 11.09 7.39 11.64 7.55 12.16C7.71 12.69 7.98 13.17 8.35 13.58C8.72 13.98 9.17 14.3 9.68 14.51ZM7.06 7.06C7.59 6.53 8.22 6.11 8.91 5.82C9.6 5.53 10.34 5.39 11.09 5.39C11.84 5.39 12.58 5.53 13.28 5.82C13.97 6.11 14.6 6.53 15.13 7.06C15.66 7.59 16.08 8.22 16.36 8.91C16.65 9.6 16.8 10.34 16.8 11.09C16.8 11.84 16.65 12.58 16.36 13.27C16.08 13.96 15.66 14.59 15.13 15.12C14.06 16.19 12.61 16.79 11.09 16.79C9.58 16.79 8.13 16.19 7.06 15.12C5.99 14.05 5.39 12.6 5.39 11.09C5.39 9.58 5.99 8.13 7.06 7.06ZM18.06 6.24C18.19 6.11 18.3 5.96 18.37 5.8C18.44 5.63 18.48 5.46 18.49 5.27C18.49 5.09 18.45 4.92 18.39 4.75C18.32 4.58 18.22 4.43 18.09 4.3C17.96 4.17 17.81 4.07 17.64 4.01C17.48 3.94 17.3 3.9 17.12 3.91C16.94 3.91 16.76 3.95 16.59 4.02C16.43 4.09 16.28 4.2 16.16 4.33C15.91 4.59 15.78 4.92 15.79 5.27C15.79 5.63 15.93 5.96 16.18 6.21C16.43 6.46 16.77 6.6 17.12 6.6C17.47 6.61 17.81 6.48 18.06 6.24Z" fill="#EFEBE3" fill-opacity="1.000000" fill-rule="evenodd"/>
</svg>
