<svg width="23.101685" height="23.094727" viewBox="0 0 23.1017 23.0947" fill="none" xmlns="http://www.w3.org/2000/svg" xmlns:xlink="http://www.w3.org/1999/xlink">
	<desc>
			Created with Pixso.
	</desc>
	<defs/>
	<path id="Vector" d="M11.55 0C5.17 0 0 5.16 0 11.54C0 17.92 5.17 23.09 11.55 23.09C17.93 23.09 23.1 17.92 23.1 11.54C23.1 5.16 17.93 0 11.55 0ZM8.72 16.33L6.38 16.33L6.38 8.8L8.72 8.8L8.72 16.33ZM7.53 7.88C6.8 7.88 6.32 7.36 6.32 6.71C6.32 6.05 6.81 5.54 7.56 5.54C8.32 5.54 8.78 6.05 8.8 6.71C8.8 7.36 8.32 7.88 7.53 7.88ZM17.26 16.33L14.92 16.33L14.92 12.16C14.92 11.19 14.58 10.53 13.74 10.53C13.09 10.53 12.71 10.97 12.54 11.4C12.47 11.56 12.46 11.77 12.46 11.99L12.46 16.33L10.12 16.33L10.12 11.2C10.12 10.26 10.09 9.48 10.06 8.8L12.09 8.8L12.2 9.85L12.24 9.85C12.55 9.36 13.31 8.63 14.57 8.63C16.11 8.63 17.26 9.66 17.26 11.88L17.26 16.33Z" fill="#EFEBE3" fill-opacity="1.000000" fill-rule="nonzero"/>
</svg>
