<svg width="48.082275" height="43.258461" viewBox="0 0 48.0823 43.2585" fill="none" xmlns="http://www.w3.org/2000/svg" xmlns:xlink="http://www.w3.org/1999/xlink">
	<desc>
			Created with Pixso.
	</desc>
	<defs/>
	<path id="Vector" d="M44.94 13.9C44.74 13.5 44.24 13.4 43.84 13.6C41.64 15.1 36.14 16.79 36.14 16.79C16.54 21.8 24.84 43.1 24.84 43.1C34.34 43.9 43.34 41.9 47.04 31.8C49.84 23.8 46.24 16.2 44.94 13.9Z" fill="#638B3F" fill-opacity="1.000000" fill-rule="nonzero"/>
	<path id="Vector" d="M24.74 43.1C24.74 42.1 28.24 28.8 40.34 22.4C40.34 22.4 29.14 32.4 24.74 43.1Z" fill="#82AF58" fill-opacity="1.000000" fill-rule="nonzero"/>
	<path id="Vector" d="M8.04 0.3C8.44 -0.1 9.04 -0.1 9.44 0.3C11.84 2.8 18.24 6.7 18.24 6.7C41.44 18.79 24.74 43.2 24.74 43.2C12.44 41.5 1.74 36.3 0.14 22.4C-1.06 11.4 5.64 2.9 8.04 0.3Z" fill="#88C057" fill-opacity="1.000000" fill-rule="nonzero"/>
	<path id="Vector" d="M24.84 43.1C25.14 41.8 24.64 24 11.34 12.4C11.24 12.3 22.44 28.3 24.84 43.1Z" fill="#638B3F" fill-opacity="1.000000" fill-rule="nonzero"/>
</svg>
