<svg width="27.130615" height="27.122559" viewBox="0 0 27.1306 27.1226" fill="none" xmlns="http://www.w3.org/2000/svg" xmlns:xlink="http://www.w3.org/1999/xlink">
	<desc>
			Created with Pixso.
	</desc>
	<defs/>
	<mask id="mask4_1437" mask-type="alpha" maskUnits="userSpaceOnUse" x="0.000000" y="0.000000" width="27.130615" height="27.122559">
		<path id="svgIDa" d="M0 0L27.13 0L27.13 27.12L0 27.12L0 0Z" fill="#000000" fill-opacity="1.000000" fill-rule="nonzero"/>
	</mask>
	<g mask="url(#mask4_1437)">
		<path id="Vector" d="M26.56 7.35C26.41 6.8 26.11 6.31 25.7 5.91C25.27 5.51 24.75 5.22 24.18 5.08C22.06 4.52 13.55 4.52 13.55 4.52C10.01 4.48 6.46 4.65 2.94 5.05C2.37 5.2 1.85 5.5 1.43 5.91C1.01 6.31 0.71 6.8 0.55 7.35C0.17 9.4 -0.02 11.47 0 13.56C-0.02 15.64 0.17 17.72 0.55 19.77C0.7 20.31 1 20.8 1.42 21.2C1.84 21.6 2.37 21.89 2.94 22.04C5.09 22.6 13.55 22.6 13.55 22.6C17.1 22.64 20.65 22.46 24.18 22.07C24.75 21.92 25.27 21.63 25.7 21.23C26.11 20.84 26.41 20.34 26.56 19.79C26.95 17.75 27.14 15.67 27.13 13.58C27.16 11.49 26.97 9.4 26.56 7.35L26.56 7.35ZM10.85 17.43L10.85 9.69L17.93 13.56L10.85 17.43Z" fill="#EFEBE3" fill-opacity="1.000000" fill-rule="nonzero"/>
	</g>
</svg>
